<svg width="360" height="1708" viewBox="0 0 360 1708" fill="none" xmlns="http://www.w3.org/2000/svg"> <path d="M0 292L2 288L4 292L2 290.316L0 292Z" fill="#01C5E3" fill-opacity="0.2"/> <path d="M48 292L50 288L52 292L50 290.316L48 292Z" fill="#01C5E3" fill-opacity="0.2"/> <path d="M96 292L98 288L100 292L98 290.316L96 292Z" fill="#01C5E3" fill-opacity="0.2"/> <path d="M144 292L146 288L148 292L146 290.316L144 292Z" fill="#01C5E3" fill-opacity="0.2"/> <path d="M192 292L194 288L196 292L194 290.316L192 292Z" fill="#01C5E3" fill-opacity="0.2"/> <path d="M240 292L242 288L244 292L242 290.316L240 292Z" fill="#01C5E3" fill-opacity="0.2"/> <path d="M288 292L290 288L292 292L290 290.316L288 292Z" fill="#01C5E3" fill-opacity="0.2"/> <path d="M332 292L334 288L336 292L334 290.316L332 292Z" fill="#01C5E3" fill-opacity="0.2"/> <path d="M24 316L26 312L28 316L26 314.316L24 316Z" fill="#01C5E3" fill-opacity="0.2"/> <path d="M72 316L74 312L76 316L74 314.316L72 316Z" fill="#01C5E3" fill-opacity="0.2"/> <path d="M120 316L122 312L124 316L122 314.316L120 316Z" fill="#01C5E3" fill-opacity="0.2"/> <path d="M168 316L170 312L172 316L170 314.316L168 316Z" fill="#01C5E3" fill-opacity="0.2"/> <path d="M216 316L218 312L220 316L218 314.316L216 316Z" fill="#01C5E3" fill-opacity="0.2"/> <path d="M264 316L266 312L268 316L266 314.316L264 316Z" fill="#01C5E3" fill-opacity="0.2"/> <path d="M312 316L314 312L316 316L314 314.316L312 316Z" fill="#01C5E3" fill-opacity="0.2"/> <path d="M356 316L358 312L360 316L358 314.316L356 316Z" fill="#01C5E3" fill-opacity="0.2"/> <path d="M0 340L2 336L4 340L2 338.316L0 340Z" fill="#01C5E3" fill-opacity="0.2"/> <path d="M48 340L50 336L52 340L50 338.316L48 340Z" fill="#01C5E3" fill-opacity="0.2"/> <path d="M96 340L98 336L100 340L98 338.316L96 340Z" fill="#01C5E3" fill-opacity="0.2"/> <path d="M144 340L146 336L148 340L146 338.316L144 340Z" fill="#01C5E3" fill-opacity="0.2"/> <path d="M192 340L194 336L196 340L194 338.316L192 340Z" fill="#01C5E3" fill-opacity="0.2"/> <path d="M240 340L242 336L244 340L242 338.316L240 340Z" fill="#01C5E3" fill-opacity="0.2"/> <path d="M288 340L290 336L292 340L290 338.316L288 340Z" fill="#01C5E3" fill-opacity="0.2"/> <path d="M332 340L334 336L336 340L334 338.316L332 340Z" fill="#01C5E3" fill-opacity="0.2"/> <path d="M24 364L26 360L28 364L26 362.316L24 364Z" fill="#01C5E3" fill-opacity="0.2"/> <path d="M72 364L74 360L76 364L74 362.316L72 364Z" fill="#01C5E3" fill-opacity="0.2"/> <path d="M120 364L122 360L124 364L122 362.316L120 364Z" fill="#01C5E3" fill-opacity="0.2"/> <path d="M168 364L170 360L172 364L170 362.316L168 364Z" fill="#01C5E3" fill-opacity="0.2"/> <path d="M216 364L218 360L220 364L218 362.316L216 364Z" fill="#01C5E3" fill-opacity="0.2"/> <path d="M264 364L266 360L268 364L266 362.316L264 364Z" fill="#01C5E3" fill-opacity="0.2"/> <path d="M312 364L314 360L316 364L314 362.316L312 364Z" fill="#01C5E3" fill-opacity="0.2"/> <path d="M356 364L358 360L360 364L358 362.316L356 364Z" fill="#01C5E3" fill-opacity="0.2"/> <path d="M0 388L2 384L4 388L2 386.316L0 388Z" fill="#01C5E3" fill-opacity="0.2"/> <path d="M48 388L50 384L52 388L50 386.316L48 388Z" fill="#01C5E3" fill-opacity="0.2"/> <path d="M96 388L98 384L100 388L98 386.316L96 388Z" fill="#01C5E3" fill-opacity="0.2"/> <path d="M144 388L146 384L148 388L146 386.316L144 388Z" fill="#01C5E3" fill-opacity="0.2"/> <path d="M192 388L194 384L196 388L194 386.316L192 388Z" fill="#01C5E3" fill-opacity="0.2"/> <path d="M240 388L242 384L244 388L242 386.316L240 388Z" fill="#01C5E3" fill-opacity="0.2"/> <path d="M288 388L290 384L292 388L290 386.316L288 388Z" fill="#01C5E3" fill-opacity="0.2"/> <path d="M332 388L334 384L336 388L334 386.316L332 388Z" fill="#01C5E3" fill-opacity="0.2"/> <path d="M24 412L26 408L28 412L26 410.316L24 412Z" fill="#01C5E3" fill-opacity="0.2"/> <path d="M72 412L74 408L76 412L74 410.316L72 412Z" fill="#01C5E3" fill-opacity="0.2"/> <path d="M120 412L122 408L124 412L122 410.316L120 412Z" fill="#01C5E3" fill-opacity="0.2"/> <path d="M168 412L170 408L172 412L170 410.316L168 412Z" fill="#01C5E3" fill-opacity="0.2"/> <path d="M216 412L218 408L220 412L218 410.316L216 412Z" fill="#01C5E3" fill-opacity="0.2"/> <path d="M264 412L266 408L268 412L266 410.316L264 412Z" fill="#01C5E3" fill-opacity="0.2"/> <path d="M312 412L314 408L316 412L314 410.316L312 412Z" fill="#01C5E3" fill-opacity="0.2"/> <path d="M356 412L358 408L360 412L358 410.316L356 412Z" fill="#01C5E3" fill-opacity="0.2"/> <path d="M0 436L2 432L4 436L2 434.316L0 436Z" fill="#01C5E3" fill-opacity="0.2"/> <path d="M48 436L50 432L52 436L50 434.316L48 436Z" fill="#01C5E3" fill-opacity="0.2"/> <path d="M96 436L98 432L100 436L98 434.316L96 436Z" fill="#01C5E3" fill-opacity="0.2"/> <path d="M144 436L146 432L148 436L146 434.316L144 436Z" fill="#01C5E3" fill-opacity="0.2"/> <path d="M192 436L194 432L196 436L194 434.316L192 436Z" fill="#01C5E3" fill-opacity="0.2"/> <path d="M240 436L242 432L244 436L242 434.316L240 436Z" fill="#01C5E3" fill-opacity="0.2"/> <path d="M288 436L290 432L292 436L290 434.316L288 436Z" fill="#01C5E3" fill-opacity="0.2"/> <path d="M332 436L334 432L336 436L334 434.316L332 436Z" fill="#01C5E3" fill-opacity="0.2"/> <path d="M24 460L26 456L28 460L26 458.316L24 460Z" fill="#01C5E3" fill-opacity="0.2"/> <path d="M72 460L74 456L76 460L74 458.316L72 460Z" fill="#01C5E3" fill-opacity="0.2"/> <path d="M120 460L122 456L124 460L122 458.316L120 460Z" fill="#01C5E3" fill-opacity="0.2"/> <path d="M168 460L170 456L172 460L170 458.316L168 460Z" fill="#01C5E3" fill-opacity="0.2"/> <path d="M216 460L218 456L220 460L218 458.316L216 460Z" fill="#01C5E3" fill-opacity="0.2"/> <path d="M264 460L266 456L268 460L266 458.316L264 460Z" fill="#01C5E3" fill-opacity="0.2"/> <path d="M312 460L314 456L316 460L314 458.316L312 460Z" fill="#01C5E3" fill-opacity="0.2"/> <path d="M356 460L358 456L360 460L358 458.316L356 460Z" fill="#01C5E3" fill-opacity="0.2"/> <path d="M0 484L2 480L4 484L2 482.316L0 484Z" fill="#01C5E3" fill-opacity="0.2"/> <path d="M48 484L50 480L52 484L50 482.316L48 484Z" fill="#01C5E3" fill-opacity="0.2"/> <path d="M96 484L98 480L100 484L98 482.316L96 484Z" fill="#01C5E3" fill-opacity="0.2"/> <path d="M144 484L146 480L148 484L146 482.316L144 484Z" fill="#01C5E3" fill-opacity="0.2"/> <path d="M192 484L194 480L196 484L194 482.316L192 484Z" fill="#01C5E3" fill-opacity="0.2"/> <path d="M240 484L242 480L244 484L242 482.316L240 484Z" fill="#01C5E3" fill-opacity="0.2"/> <path d="M288 484L290 480L292 484L290 482.316L288 484Z" fill="#01C5E3" fill-opacity="0.2"/> <path d="M332 484L334 480L336 484L334 482.316L332 484Z" fill="#01C5E3" fill-opacity="0.2"/> <path d="M24 508L26 504L28 508L26 506.316L24 508Z" fill="#01C5E3" fill-opacity="0.2"/> <path d="M72 508L74 504L76 508L74 506.316L72 508Z" fill="#01C5E3" fill-opacity="0.2"/> <path d="M120 508L122 504L124 508L122 506.316L120 508Z" fill="#01C5E3" fill-opacity="0.2"/> <path d="M168 508L170 504L172 508L170 506.316L168 508Z" fill="#01C5E3" fill-opacity="0.2"/> <path d="M216 508L218 504L220 508L218 506.316L216 508Z" fill="#01C5E3" fill-opacity="0.2"/> <path d="M264 508L266 504L268 508L266 506.316L264 508Z" fill="#01C5E3" fill-opacity="0.2"/> <path d="M312 508L314 504L316 508L314 506.316L312 508Z" fill="#01C5E3" fill-opacity="0.2"/> <path d="M356 508L358 504L360 508L358 506.316L356 508Z" fill="#01C5E3" fill-opacity="0.2"/> <path d="M0 532L2 528L4 532L2 530.316L0 532Z" fill="#01C5E3" fill-opacity="0.2"/> <path d="M48 532L50 528L52 532L50 530.316L48 532Z" fill="#01C5E3" fill-opacity="0.2"/> <path d="M96 532L98 528L100 532L98 530.316L96 532Z" fill="#01C5E3" fill-opacity="0.2"/> <path d="M144 532L146 528L148 532L146 530.316L144 532Z" fill="#01C5E3" fill-opacity="0.2"/> <path d="M192 532L194 528L196 532L194 530.316L192 532Z" fill="#01C5E3" fill-opacity="0.2"/> <path d="M240 532L242 528L244 532L242 530.316L240 532Z" fill="#01C5E3" fill-opacity="0.2"/> <path d="M288 532L290 528L292 532L290 530.316L288 532Z" fill="#01C5E3" fill-opacity="0.2"/> <path d="M332 532L334 528L336 532L334 530.316L332 532Z" fill="#01C5E3" fill-opacity="0.2"/> <path d="M24 556L26 552L28 556L26 554.316L24 556Z" fill="#01C5E3" fill-opacity="0.2"/> <path d="M72 556L74 552L76 556L74 554.316L72 556Z" fill="#01C5E3" fill-opacity="0.2"/> <path d="M120 556L122 552L124 556L122 554.316L120 556Z" fill="#01C5E3" fill-opacity="0.2"/> <path d="M168 556L170 552L172 556L170 554.316L168 556Z" fill="#01C5E3" fill-opacity="0.2"/> <path d="M216 556L218 552L220 556L218 554.316L216 556Z" fill="#01C5E3" fill-opacity="0.2"/> <path d="M264 556L266 552L268 556L266 554.316L264 556Z" fill="#01C5E3" fill-opacity="0.2"/> <path d="M312 556L314 552L316 556L314 554.316L312 556Z" fill="#01C5E3" fill-opacity="0.2"/> <path d="M356 556L358 552L360 556L358 554.316L356 556Z" fill="#01C5E3" fill-opacity="0.2"/> <path d="M0 4L2 0L4 4L2 2.31579L0 4Z" fill="#01C5E3" fill-opacity="0.2"/> <path d="M48 4L50 0L52 4L50 2.31579L48 4Z" fill="#01C5E3" fill-opacity="0.2"/> <path d="M96 4L98 0L100 4L98 2.31579L96 4Z" fill="#01C5E3" fill-opacity="0.2"/> <path d="M144 4L146 0L148 4L146 2.31579L144 4Z" fill="#01C5E3" fill-opacity="0.2"/> <path d="M192 4L194 0L196 4L194 2.31579L192 4Z" fill="#01C5E3" fill-opacity="0.2"/> <path d="M240 4L242 0L244 4L242 2.31579L240 4Z" fill="#01C5E3" fill-opacity="0.2"/> <path d="M288 4L290 0L292 4L290 2.31579L288 4Z" fill="#01C5E3" fill-opacity="0.2"/> <path d="M332 4L334 0L336 4L334 2.31579L332 4Z" fill="#01C5E3" fill-opacity="0.2"/> <path d="M24 28L26 24L28 28L26 26.3158L24 28Z" fill="#01C5E3" fill-opacity="0.2"/> <path d="M72 28L74 24L76 28L74 26.3158L72 28Z" fill="#01C5E3" fill-opacity="0.2"/> <path d="M120 28L122 24L124 28L122 26.3158L120 28Z" fill="#01C5E3" fill-opacity="0.2"/> <path d="M168 28L170 24L172 28L170 26.3158L168 28Z" fill="#01C5E3" fill-opacity="0.2"/> <path d="M216 28L218 24L220 28L218 26.3158L216 28Z" fill="#01C5E3" fill-opacity="0.2"/> <path d="M264 28L266 24L268 28L266 26.3158L264 28Z" fill="#01C5E3" fill-opacity="0.2"/> <path d="M312 28L314 24L316 28L314 26.3158L312 28Z" fill="#01C5E3" fill-opacity="0.2"/> <path d="M356 28L358 24L360 28L358 26.3158L356 28Z" fill="#01C5E3" fill-opacity="0.2"/> <path d="M0 52L2 48L4 52L2 50.3158L0 52Z" fill="#01C5E3" fill-opacity="0.2"/> <path d="M48 52L50 48L52 52L50 50.3158L48 52Z" fill="#01C5E3" fill-opacity="0.2"/> <path d="M96 52L98 48L100 52L98 50.3158L96 52Z" fill="#01C5E3" fill-opacity="0.2"/> <path d="M144 52L146 48L148 52L146 50.3158L144 52Z" fill="#01C5E3" fill-opacity="0.2"/> <path d="M192 52L194 48L196 52L194 50.3158L192 52Z" fill="#01C5E3" fill-opacity="0.2"/> <path d="M240 52L242 48L244 52L242 50.3158L240 52Z" fill="#01C5E3" fill-opacity="0.2"/> <path d="M288 52L290 48L292 52L290 50.3158L288 52Z" fill="#01C5E3" fill-opacity="0.2"/> <path d="M332 52L334 48L336 52L334 50.3158L332 52Z" fill="#01C5E3" fill-opacity="0.2"/> <path d="M24 76L26 72L28 76L26 74.3158L24 76Z" fill="#01C5E3" fill-opacity="0.2"/> <path d="M72 76L74 72L76 76L74 74.3158L72 76Z" fill="#01C5E3" fill-opacity="0.2"/> <path d="M120 76L122 72L124 76L122 74.3158L120 76Z" fill="#01C5E3" fill-opacity="0.2"/> <path d="M168 76L170 72L172 76L170 74.3158L168 76Z" fill="#01C5E3" fill-opacity="0.2"/> <path d="M216 76L218 72L220 76L218 74.3158L216 76Z" fill="#01C5E3" fill-opacity="0.2"/> <path d="M264 76L266 72L268 76L266 74.3158L264 76Z" fill="#01C5E3" fill-opacity="0.2"/> <path d="M312 76L314 72L316 76L314 74.3158L312 76Z" fill="#01C5E3" fill-opacity="0.2"/> <path d="M356 76L358 72L360 76L358 74.3158L356 76Z" fill="#01C5E3" fill-opacity="0.2"/> <path d="M0 100L2 96L4 100L2 98.3158L0 100Z" fill="#01C5E3" fill-opacity="0.2"/> <path d="M48 100L50 96L52 100L50 98.3158L48 100Z" fill="#01C5E3" fill-opacity="0.2"/> <path d="M96 100L98 96L100 100L98 98.3158L96 100Z" fill="#01C5E3" fill-opacity="0.2"/> <path d="M144 100L146 96L148 100L146 98.3158L144 100Z" fill="#01C5E3" fill-opacity="0.2"/> <path d="M192 100L194 96L196 100L194 98.3158L192 100Z" fill="#01C5E3" fill-opacity="0.2"/> <path d="M240 100L242 96L244 100L242 98.3158L240 100Z" fill="#01C5E3" fill-opacity="0.2"/> <path d="M288 100L290 96L292 100L290 98.3158L288 100Z" fill="#01C5E3" fill-opacity="0.2"/> <path d="M332 100L334 96L336 100L334 98.3158L332 100Z" fill="#01C5E3" fill-opacity="0.2"/> <path d="M24 124L26 120L28 124L26 122.316L24 124Z" fill="#01C5E3" fill-opacity="0.2"/> <path d="M72 124L74 120L76 124L74 122.316L72 124Z" fill="#01C5E3" fill-opacity="0.2"/> <path d="M120 124L122 120L124 124L122 122.316L120 124Z" fill="#01C5E3" fill-opacity="0.2"/> <path d="M168 124L170 120L172 124L170 122.316L168 124Z" fill="#01C5E3" fill-opacity="0.2"/> <path d="M216 124L218 120L220 124L218 122.316L216 124Z" fill="#01C5E3" fill-opacity="0.2"/> <path d="M264 124L266 120L268 124L266 122.316L264 124Z" fill="#01C5E3" fill-opacity="0.2"/> <path d="M312 124L314 120L316 124L314 122.316L312 124Z" fill="#01C5E3" fill-opacity="0.2"/> <path d="M356 124L358 120L360 124L358 122.316L356 124Z" fill="#01C5E3" fill-opacity="0.2"/> <path d="M0 148L2 144L4 148L2 146.316L0 148Z" fill="#01C5E3" fill-opacity="0.2"/> <path d="M48 148L50 144L52 148L50 146.316L48 148Z" fill="#01C5E3" fill-opacity="0.2"/> <path d="M96 148L98 144L100 148L98 146.316L96 148Z" fill="#01C5E3" fill-opacity="0.2"/> <path d="M144 148L146 144L148 148L146 146.316L144 148Z" fill="#01C5E3" fill-opacity="0.2"/> <path d="M192 148L194 144L196 148L194 146.316L192 148Z" fill="#01C5E3" fill-opacity="0.2"/> <path d="M240 148L242 144L244 148L242 146.316L240 148Z" fill="#01C5E3" fill-opacity="0.2"/> <path d="M288 148L290 144L292 148L290 146.316L288 148Z" fill="#01C5E3" fill-opacity="0.2"/> <path d="M332 148L334 144L336 148L334 146.316L332 148Z" fill="#01C5E3" fill-opacity="0.2"/> <path d="M24 172L26 168L28 172L26 170.316L24 172Z" fill="#01C5E3" fill-opacity="0.2"/> <path d="M72 172L74 168L76 172L74 170.316L72 172Z" fill="#01C5E3" fill-opacity="0.2"/> <path d="M120 172L122 168L124 172L122 170.316L120 172Z" fill="#01C5E3" fill-opacity="0.2"/> <path d="M168 172L170 168L172 172L170 170.316L168 172Z" fill="#01C5E3" fill-opacity="0.2"/> <path d="M216 172L218 168L220 172L218 170.316L216 172Z" fill="#01C5E3" fill-opacity="0.2"/> <path d="M264 172L266 168L268 172L266 170.316L264 172Z" fill="#01C5E3" fill-opacity="0.2"/> <path d="M312 172L314 168L316 172L314 170.316L312 172Z" fill="#01C5E3" fill-opacity="0.2"/> <path d="M356 172L358 168L360 172L358 170.316L356 172Z" fill="#01C5E3" fill-opacity="0.2"/> <path d="M0 196L2 192L4 196L2 194.316L0 196Z" fill="#01C5E3" fill-opacity="0.2"/> <path d="M48 196L50 192L52 196L50 194.316L48 196Z" fill="#01C5E3" fill-opacity="0.2"/> <path d="M96 196L98 192L100 196L98 194.316L96 196Z" fill="#01C5E3" fill-opacity="0.2"/> <path d="M144 196L146 192L148 196L146 194.316L144 196Z" fill="#01C5E3" fill-opacity="0.2"/> <path d="M192 196L194 192L196 196L194 194.316L192 196Z" fill="#01C5E3" fill-opacity="0.2"/> <path d="M240 196L242 192L244 196L242 194.316L240 196Z" fill="#01C5E3" fill-opacity="0.2"/> <path d="M288 196L290 192L292 196L290 194.316L288 196Z" fill="#01C5E3" fill-opacity="0.2"/> <path d="M332 196L334 192L336 196L334 194.316L332 196Z" fill="#01C5E3" fill-opacity="0.2"/> <path d="M24 220L26 216L28 220L26 218.316L24 220Z" fill="#01C5E3" fill-opacity="0.2"/> <path d="M72 220L74 216L76 220L74 218.316L72 220Z" fill="#01C5E3" fill-opacity="0.2"/> <path d="M120 220L122 216L124 220L122 218.316L120 220Z" fill="#01C5E3" fill-opacity="0.2"/> <path d="M168 220L170 216L172 220L170 218.316L168 220Z" fill="#01C5E3" fill-opacity="0.2"/> <path d="M216 220L218 216L220 220L218 218.316L216 220Z" fill="#01C5E3" fill-opacity="0.2"/> <path d="M264 220L266 216L268 220L266 218.316L264 220Z" fill="#01C5E3" fill-opacity="0.2"/> <path d="M312 220L314 216L316 220L314 218.316L312 220Z" fill="#01C5E3" fill-opacity="0.2"/> <path d="M356 220L358 216L360 220L358 218.316L356 220Z" fill="#01C5E3" fill-opacity="0.2"/> <path d="M0 244L2 240L4 244L2 242.316L0 244Z" fill="#01C5E3" fill-opacity="0.2"/> <path d="M48 244L50 240L52 244L50 242.316L48 244Z" fill="#01C5E3" fill-opacity="0.2"/> <path d="M96 244L98 240L100 244L98 242.316L96 244Z" fill="#01C5E3" fill-opacity="0.2"/> <path d="M144 244L146 240L148 244L146 242.316L144 244Z" fill="#01C5E3" fill-opacity="0.2"/> <path d="M192 244L194 240L196 244L194 242.316L192 244Z" fill="#01C5E3" fill-opacity="0.2"/> <path d="M240 244L242 240L244 244L242 242.316L240 244Z" fill="#01C5E3" fill-opacity="0.2"/> <path d="M288 244L290 240L292 244L290 242.316L288 244Z" fill="#01C5E3" fill-opacity="0.2"/> <path d="M332 244L334 240L336 244L334 242.316L332 244Z" fill="#01C5E3" fill-opacity="0.2"/> <path d="M24 268L26 264L28 268L26 266.316L24 268Z" fill="#01C5E3" fill-opacity="0.2"/> <path d="M72 268L74 264L76 268L74 266.316L72 268Z" fill="#01C5E3" fill-opacity="0.2"/> <path d="M120 268L122 264L124 268L122 266.316L120 268Z" fill="#01C5E3" fill-opacity="0.2"/> <path d="M168 268L170 264L172 268L170 266.316L168 268Z" fill="#01C5E3" fill-opacity="0.2"/> <path d="M216 268L218 264L220 268L218 266.316L216 268Z" fill="#01C5E3" fill-opacity="0.2"/> <path d="M264 268L266 264L268 268L266 266.316L264 268Z" fill="#01C5E3" fill-opacity="0.2"/> <path d="M312 268L314 264L316 268L314 266.316L312 268Z" fill="#01C5E3" fill-opacity="0.2"/> <path d="M356 268L358 264L360 268L358 266.316L356 268Z" fill="#01C5E3" fill-opacity="0.2"/> <path d="M0 868L2 864L4 868L2 866.316L0 868Z" fill="#01C5E3" fill-opacity="0.2"/> <path d="M48 868L50 864L52 868L50 866.316L48 868Z" fill="#01C5E3" fill-opacity="0.2"/> <path d="M96 868L98 864L100 868L98 866.316L96 868Z" fill="#01C5E3" fill-opacity="0.2"/> <path d="M144 868L146 864L148 868L146 866.316L144 868Z" fill="#01C5E3" fill-opacity="0.2"/> <path d="M192 868L194 864L196 868L194 866.316L192 868Z" fill="#01C5E3" fill-opacity="0.2"/> <path d="M240 868L242 864L244 868L242 866.316L240 868Z" fill="#01C5E3" fill-opacity="0.2"/> <path d="M288 868L290 864L292 868L290 866.316L288 868Z" fill="#01C5E3" fill-opacity="0.2"/> <path d="M332 868L334 864L336 868L334 866.316L332 868Z" fill="#01C5E3" fill-opacity="0.2"/> <path d="M24 892L26 888L28 892L26 890.316L24 892Z" fill="#01C5E3" fill-opacity="0.2"/> <path d="M72 892L74 888L76 892L74 890.316L72 892Z" fill="#01C5E3" fill-opacity="0.2"/> <path d="M120 892L122 888L124 892L122 890.316L120 892Z" fill="#01C5E3" fill-opacity="0.2"/> <path d="M168 892L170 888L172 892L170 890.316L168 892Z" fill="#01C5E3" fill-opacity="0.2"/> <path d="M216 892L218 888L220 892L218 890.316L216 892Z" fill="#01C5E3" fill-opacity="0.2"/> <path d="M264 892L266 888L268 892L266 890.316L264 892Z" fill="#01C5E3" fill-opacity="0.2"/> <path d="M312 892L314 888L316 892L314 890.316L312 892Z" fill="#01C5E3" fill-opacity="0.2"/> <path d="M356 892L358 888L360 892L358 890.316L356 892Z" fill="#01C5E3" fill-opacity="0.2"/> <path d="M0 916L2 912L4 916L2 914.316L0 916Z" fill="#01C5E3" fill-opacity="0.2"/> <path d="M48 916L50 912L52 916L50 914.316L48 916Z" fill="#01C5E3" fill-opacity="0.2"/> <path d="M96 916L98 912L100 916L98 914.316L96 916Z" fill="#01C5E3" fill-opacity="0.2"/> <path d="M144 916L146 912L148 916L146 914.316L144 916Z" fill="#01C5E3" fill-opacity="0.2"/> <path d="M192 916L194 912L196 916L194 914.316L192 916Z" fill="#01C5E3" fill-opacity="0.2"/> <path d="M240 916L242 912L244 916L242 914.316L240 916Z" fill="#01C5E3" fill-opacity="0.2"/> <path d="M288 916L290 912L292 916L290 914.316L288 916Z" fill="#01C5E3" fill-opacity="0.2"/> <path d="M332 916L334 912L336 916L334 914.316L332 916Z" fill="#01C5E3" fill-opacity="0.2"/> <path d="M24 940L26 936L28 940L26 938.316L24 940Z" fill="#01C5E3" fill-opacity="0.2"/> <path d="M72 940L74 936L76 940L74 938.316L72 940Z" fill="#01C5E3" fill-opacity="0.2"/> <path d="M120 940L122 936L124 940L122 938.316L120 940Z" fill="#01C5E3" fill-opacity="0.2"/> <path d="M168 940L170 936L172 940L170 938.316L168 940Z" fill="#01C5E3" fill-opacity="0.2"/> <path d="M216 940L218 936L220 940L218 938.316L216 940Z" fill="#01C5E3" fill-opacity="0.2"/> <path d="M264 940L266 936L268 940L266 938.316L264 940Z" fill="#01C5E3" fill-opacity="0.2"/> <path d="M312 940L314 936L316 940L314 938.316L312 940Z" fill="#01C5E3" fill-opacity="0.2"/> <path d="M356 940L358 936L360 940L358 938.316L356 940Z" fill="#01C5E3" fill-opacity="0.2"/> <path d="M0 964L2 960L4 964L2 962.316L0 964Z" fill="#01C5E3" fill-opacity="0.2"/> <path d="M48 964L50 960L52 964L50 962.316L48 964Z" fill="#01C5E3" fill-opacity="0.2"/> <path d="M96 964L98 960L100 964L98 962.316L96 964Z" fill="#01C5E3" fill-opacity="0.2"/> <path d="M144 964L146 960L148 964L146 962.316L144 964Z" fill="#01C5E3" fill-opacity="0.2"/> <path d="M192 964L194 960L196 964L194 962.316L192 964Z" fill="#01C5E3" fill-opacity="0.2"/> <path d="M240 964L242 960L244 964L242 962.316L240 964Z" fill="#01C5E3" fill-opacity="0.2"/> <path d="M288 964L290 960L292 964L290 962.316L288 964Z" fill="#01C5E3" fill-opacity="0.2"/> <path d="M332 964L334 960L336 964L334 962.316L332 964Z" fill="#01C5E3" fill-opacity="0.2"/> <path d="M24 988L26 984L28 988L26 986.316L24 988Z" fill="#01C5E3" fill-opacity="0.2"/> <path d="M72 988L74 984L76 988L74 986.316L72 988Z" fill="#01C5E3" fill-opacity="0.2"/> <path d="M120 988L122 984L124 988L122 986.316L120 988Z" fill="#01C5E3" fill-opacity="0.2"/> <path d="M168 988L170 984L172 988L170 986.316L168 988Z" fill="#01C5E3" fill-opacity="0.2"/> <path d="M216 988L218 984L220 988L218 986.316L216 988Z" fill="#01C5E3" fill-opacity="0.2"/> <path d="M264 988L266 984L268 988L266 986.316L264 988Z" fill="#01C5E3" fill-opacity="0.2"/> <path d="M312 988L314 984L316 988L314 986.316L312 988Z" fill="#01C5E3" fill-opacity="0.2"/> <path d="M356 988L358 984L360 988L358 986.316L356 988Z" fill="#01C5E3" fill-opacity="0.2"/> <path d="M0 1012L2 1008L4 1012L2 1010.32L0 1012Z" fill="#01C5E3" fill-opacity="0.2"/> <path d="M48 1012L50 1008L52 1012L50 1010.32L48 1012Z" fill="#01C5E3" fill-opacity="0.2"/> <path d="M96 1012L98 1008L100 1012L98 1010.32L96 1012Z" fill="#01C5E3" fill-opacity="0.2"/> <path d="M144 1012L146 1008L148 1012L146 1010.32L144 1012Z" fill="#01C5E3" fill-opacity="0.2"/> <path d="M192 1012L194 1008L196 1012L194 1010.32L192 1012Z" fill="#01C5E3" fill-opacity="0.2"/> <path d="M240 1012L242 1008L244 1012L242 1010.32L240 1012Z" fill="#01C5E3" fill-opacity="0.2"/> <path d="M288 1012L290 1008L292 1012L290 1010.32L288 1012Z" fill="#01C5E3" fill-opacity="0.2"/> <path d="M332 1012L334 1008L336 1012L334 1010.32L332 1012Z" fill="#01C5E3" fill-opacity="0.2"/> <path d="M24 1036L26 1032L28 1036L26 1034.32L24 1036Z" fill="#01C5E3" fill-opacity="0.2"/> <path d="M72 1036L74 1032L76 1036L74 1034.32L72 1036Z" fill="#01C5E3" fill-opacity="0.2"/> <path d="M120 1036L122 1032L124 1036L122 1034.32L120 1036Z" fill="#01C5E3" fill-opacity="0.2"/> <path d="M168 1036L170 1032L172 1036L170 1034.32L168 1036Z" fill="#01C5E3" fill-opacity="0.2"/> <path d="M216 1036L218 1032L220 1036L218 1034.32L216 1036Z" fill="#01C5E3" fill-opacity="0.2"/> <path d="M264 1036L266 1032L268 1036L266 1034.32L264 1036Z" fill="#01C5E3" fill-opacity="0.2"/> <path d="M312 1036L314 1032L316 1036L314 1034.32L312 1036Z" fill="#01C5E3" fill-opacity="0.2"/> <path d="M356 1036L358 1032L360 1036L358 1034.32L356 1036Z" fill="#01C5E3" fill-opacity="0.2"/> <path d="M0 1060L2 1056L4 1060L2 1058.32L0 1060Z" fill="#01C5E3" fill-opacity="0.2"/> <path d="M48 1060L50 1056L52 1060L50 1058.32L48 1060Z" fill="#01C5E3" fill-opacity="0.2"/> <path d="M96 1060L98 1056L100 1060L98 1058.32L96 1060Z" fill="#01C5E3" fill-opacity="0.2"/> <path d="M144 1060L146 1056L148 1060L146 1058.32L144 1060Z" fill="#01C5E3" fill-opacity="0.2"/> <path d="M192 1060L194 1056L196 1060L194 1058.32L192 1060Z" fill="#01C5E3" fill-opacity="0.2"/> <path d="M240 1060L242 1056L244 1060L242 1058.32L240 1060Z" fill="#01C5E3" fill-opacity="0.2"/> <path d="M288 1060L290 1056L292 1060L290 1058.32L288 1060Z" fill="#01C5E3" fill-opacity="0.2"/> <path d="M332 1060L334 1056L336 1060L334 1058.32L332 1060Z" fill="#01C5E3" fill-opacity="0.2"/> <path d="M24 1084L26 1080L28 1084L26 1082.32L24 1084Z" fill="#01C5E3" fill-opacity="0.2"/> <path d="M72 1084L74 1080L76 1084L74 1082.32L72 1084Z" fill="#01C5E3" fill-opacity="0.2"/> <path d="M120 1084L122 1080L124 1084L122 1082.32L120 1084Z" fill="#01C5E3" fill-opacity="0.2"/> <path d="M168 1084L170 1080L172 1084L170 1082.32L168 1084Z" fill="#01C5E3" fill-opacity="0.2"/> <path d="M216 1084L218 1080L220 1084L218 1082.32L216 1084Z" fill="#01C5E3" fill-opacity="0.2"/> <path d="M264 1084L266 1080L268 1084L266 1082.32L264 1084Z" fill="#01C5E3" fill-opacity="0.2"/> <path d="M312 1084L314 1080L316 1084L314 1082.32L312 1084Z" fill="#01C5E3" fill-opacity="0.2"/> <path d="M356 1084L358 1080L360 1084L358 1082.32L356 1084Z" fill="#01C5E3" fill-opacity="0.2"/> <path d="M0 1108L2 1104L4 1108L2 1106.32L0 1108Z" fill="#01C5E3" fill-opacity="0.2"/> <path d="M48 1108L50 1104L52 1108L50 1106.32L48 1108Z" fill="#01C5E3" fill-opacity="0.2"/> <path d="M96 1108L98 1104L100 1108L98 1106.32L96 1108Z" fill="#01C5E3" fill-opacity="0.2"/> <path d="M144 1108L146 1104L148 1108L146 1106.32L144 1108Z" fill="#01C5E3" fill-opacity="0.2"/> <path d="M192 1108L194 1104L196 1108L194 1106.32L192 1108Z" fill="#01C5E3" fill-opacity="0.2"/> <path d="M240 1108L242 1104L244 1108L242 1106.32L240 1108Z" fill="#01C5E3" fill-opacity="0.2"/> <path d="M288 1108L290 1104L292 1108L290 1106.32L288 1108Z" fill="#01C5E3" fill-opacity="0.2"/> <path d="M332 1108L334 1104L336 1108L334 1106.32L332 1108Z" fill="#01C5E3" fill-opacity="0.2"/> <path d="M24 1132L26 1128L28 1132L26 1130.32L24 1132Z" fill="#01C5E3" fill-opacity="0.2"/> <path d="M72 1132L74 1128L76 1132L74 1130.32L72 1132Z" fill="#01C5E3" fill-opacity="0.2"/> <path d="M120 1132L122 1128L124 1132L122 1130.32L120 1132Z" fill="#01C5E3" fill-opacity="0.2"/> <path d="M168 1132L170 1128L172 1132L170 1130.32L168 1132Z" fill="#01C5E3" fill-opacity="0.2"/> <path d="M216 1132L218 1128L220 1132L218 1130.32L216 1132Z" fill="#01C5E3" fill-opacity="0.2"/> <path d="M264 1132L266 1128L268 1132L266 1130.32L264 1132Z" fill="#01C5E3" fill-opacity="0.2"/> <path d="M312 1132L314 1128L316 1132L314 1130.32L312 1132Z" fill="#01C5E3" fill-opacity="0.2"/> <path d="M356 1132L358 1128L360 1132L358 1130.32L356 1132Z" fill="#01C5E3" fill-opacity="0.2"/> <path d="M0 580L2 576L4 580L2 578.316L0 580Z" fill="#01C5E3" fill-opacity="0.2"/> <path d="M48 580L50 576L52 580L50 578.316L48 580Z" fill="#01C5E3" fill-opacity="0.2"/> <path d="M96 580L98 576L100 580L98 578.316L96 580Z" fill="#01C5E3" fill-opacity="0.2"/> <path d="M144 580L146 576L148 580L146 578.316L144 580Z" fill="#01C5E3" fill-opacity="0.2"/> <path d="M192 580L194 576L196 580L194 578.316L192 580Z" fill="#01C5E3" fill-opacity="0.2"/> <path d="M240 580L242 576L244 580L242 578.316L240 580Z" fill="#01C5E3" fill-opacity="0.2"/> <path d="M288 580L290 576L292 580L290 578.316L288 580Z" fill="#01C5E3" fill-opacity="0.2"/> <path d="M332 580L334 576L336 580L334 578.316L332 580Z" fill="#01C5E3" fill-opacity="0.2"/> <path d="M24 604L26 600L28 604L26 602.316L24 604Z" fill="#01C5E3" fill-opacity="0.2"/> <path d="M72 604L74 600L76 604L74 602.316L72 604Z" fill="#01C5E3" fill-opacity="0.2"/> <path d="M120 604L122 600L124 604L122 602.316L120 604Z" fill="#01C5E3" fill-opacity="0.2"/> <path d="M168 604L170 600L172 604L170 602.316L168 604Z" fill="#01C5E3" fill-opacity="0.2"/> <path d="M216 604L218 600L220 604L218 602.316L216 604Z" fill="#01C5E3" fill-opacity="0.2"/> <path d="M264 604L266 600L268 604L266 602.316L264 604Z" fill="#01C5E3" fill-opacity="0.2"/> <path d="M312 604L314 600L316 604L314 602.316L312 604Z" fill="#01C5E3" fill-opacity="0.2"/> <path d="M356 604L358 600L360 604L358 602.316L356 604Z" fill="#01C5E3" fill-opacity="0.2"/> <path d="M0 628L2 624L4 628L2 626.316L0 628Z" fill="#01C5E3" fill-opacity="0.2"/> <path d="M48 628L50 624L52 628L50 626.316L48 628Z" fill="#01C5E3" fill-opacity="0.2"/> <path d="M96 628L98 624L100 628L98 626.316L96 628Z" fill="#01C5E3" fill-opacity="0.2"/> <path d="M144 628L146 624L148 628L146 626.316L144 628Z" fill="#01C5E3" fill-opacity="0.2"/> <path d="M192 628L194 624L196 628L194 626.316L192 628Z" fill="#01C5E3" fill-opacity="0.2"/> <path d="M240 628L242 624L244 628L242 626.316L240 628Z" fill="#01C5E3" fill-opacity="0.2"/> <path d="M288 628L290 624L292 628L290 626.316L288 628Z" fill="#01C5E3" fill-opacity="0.2"/> <path d="M332 628L334 624L336 628L334 626.316L332 628Z" fill="#01C5E3" fill-opacity="0.2"/> <path d="M24 652L26 648L28 652L26 650.316L24 652Z" fill="#01C5E3" fill-opacity="0.2"/> <path d="M72 652L74 648L76 652L74 650.316L72 652Z" fill="#01C5E3" fill-opacity="0.2"/> <path d="M120 652L122 648L124 652L122 650.316L120 652Z" fill="#01C5E3" fill-opacity="0.2"/> <path d="M168 652L170 648L172 652L170 650.316L168 652Z" fill="#01C5E3" fill-opacity="0.2"/> <path d="M216 652L218 648L220 652L218 650.316L216 652Z" fill="#01C5E3" fill-opacity="0.2"/> <path d="M264 652L266 648L268 652L266 650.316L264 652Z" fill="#01C5E3" fill-opacity="0.2"/> <path d="M312 652L314 648L316 652L314 650.316L312 652Z" fill="#01C5E3" fill-opacity="0.2"/> <path d="M356 652L358 648L360 652L358 650.316L356 652Z" fill="#01C5E3" fill-opacity="0.2"/> <path d="M0 676L2 672L4 676L2 674.316L0 676Z" fill="#01C5E3" fill-opacity="0.2"/> <path d="M48 676L50 672L52 676L50 674.316L48 676Z" fill="#01C5E3" fill-opacity="0.2"/> <path d="M96 676L98 672L100 676L98 674.316L96 676Z" fill="#01C5E3" fill-opacity="0.2"/> <path d="M144 676L146 672L148 676L146 674.316L144 676Z" fill="#01C5E3" fill-opacity="0.2"/> <path d="M192 676L194 672L196 676L194 674.316L192 676Z" fill="#01C5E3" fill-opacity="0.2"/> <path d="M240 676L242 672L244 676L242 674.316L240 676Z" fill="#01C5E3" fill-opacity="0.2"/> <path d="M288 676L290 672L292 676L290 674.316L288 676Z" fill="#01C5E3" fill-opacity="0.2"/> <path d="M332 676L334 672L336 676L334 674.316L332 676Z" fill="#01C5E3" fill-opacity="0.2"/> <path d="M24 700L26 696L28 700L26 698.316L24 700Z" fill="#01C5E3" fill-opacity="0.2"/> <path d="M72 700L74 696L76 700L74 698.316L72 700Z" fill="#01C5E3" fill-opacity="0.2"/> <path d="M120 700L122 696L124 700L122 698.316L120 700Z" fill="#01C5E3" fill-opacity="0.2"/> <path d="M168 700L170 696L172 700L170 698.316L168 700Z" fill="#01C5E3" fill-opacity="0.2"/> <path d="M216 700L218 696L220 700L218 698.316L216 700Z" fill="#01C5E3" fill-opacity="0.2"/> <path d="M264 700L266 696L268 700L266 698.316L264 700Z" fill="#01C5E3" fill-opacity="0.2"/> <path d="M312 700L314 696L316 700L314 698.316L312 700Z" fill="#01C5E3" fill-opacity="0.2"/> <path d="M356 700L358 696L360 700L358 698.316L356 700Z" fill="#01C5E3" fill-opacity="0.2"/> <path d="M0 724L2 720L4 724L2 722.316L0 724Z" fill="#01C5E3" fill-opacity="0.2"/> <path d="M48 724L50 720L52 724L50 722.316L48 724Z" fill="#01C5E3" fill-opacity="0.2"/> <path d="M96 724L98 720L100 724L98 722.316L96 724Z" fill="#01C5E3" fill-opacity="0.2"/> <path d="M144 724L146 720L148 724L146 722.316L144 724Z" fill="#01C5E3" fill-opacity="0.2"/> <path d="M192 724L194 720L196 724L194 722.316L192 724Z" fill="#01C5E3" fill-opacity="0.2"/> <path d="M240 724L242 720L244 724L242 722.316L240 724Z" fill="#01C5E3" fill-opacity="0.2"/> <path d="M288 724L290 720L292 724L290 722.316L288 724Z" fill="#01C5E3" fill-opacity="0.2"/> <path d="M332 724L334 720L336 724L334 722.316L332 724Z" fill="#01C5E3" fill-opacity="0.2"/> <path d="M24 748L26 744L28 748L26 746.316L24 748Z" fill="#01C5E3" fill-opacity="0.2"/> <path d="M72 748L74 744L76 748L74 746.316L72 748Z" fill="#01C5E3" fill-opacity="0.2"/> <path d="M120 748L122 744L124 748L122 746.316L120 748Z" fill="#01C5E3" fill-opacity="0.2"/> <path d="M168 748L170 744L172 748L170 746.316L168 748Z" fill="#01C5E3" fill-opacity="0.2"/> <path d="M216 748L218 744L220 748L218 746.316L216 748Z" fill="#01C5E3" fill-opacity="0.2"/> <path d="M264 748L266 744L268 748L266 746.316L264 748Z" fill="#01C5E3" fill-opacity="0.2"/> <path d="M312 748L314 744L316 748L314 746.316L312 748Z" fill="#01C5E3" fill-opacity="0.2"/> <path d="M356 748L358 744L360 748L358 746.316L356 748Z" fill="#01C5E3" fill-opacity="0.2"/> <path d="M0 772L2 768L4 772L2 770.316L0 772Z" fill="#01C5E3" fill-opacity="0.2"/> <path d="M48 772L50 768L52 772L50 770.316L48 772Z" fill="#01C5E3" fill-opacity="0.2"/> <path d="M96 772L98 768L100 772L98 770.316L96 772Z" fill="#01C5E3" fill-opacity="0.2"/> <path d="M144 772L146 768L148 772L146 770.316L144 772Z" fill="#01C5E3" fill-opacity="0.2"/> <path d="M192 772L194 768L196 772L194 770.316L192 772Z" fill="#01C5E3" fill-opacity="0.2"/> <path d="M240 772L242 768L244 772L242 770.316L240 772Z" fill="#01C5E3" fill-opacity="0.2"/> <path d="M288 772L290 768L292 772L290 770.316L288 772Z" fill="#01C5E3" fill-opacity="0.2"/> <path d="M332 772L334 768L336 772L334 770.316L332 772Z" fill="#01C5E3" fill-opacity="0.2"/> <path d="M24 796L26 792L28 796L26 794.316L24 796Z" fill="#01C5E3" fill-opacity="0.2"/> <path d="M72 796L74 792L76 796L74 794.316L72 796Z" fill="#01C5E3" fill-opacity="0.2"/> <path d="M120 796L122 792L124 796L122 794.316L120 796Z" fill="#01C5E3" fill-opacity="0.2"/> <path d="M168 796L170 792L172 796L170 794.316L168 796Z" fill="#01C5E3" fill-opacity="0.2"/> <path d="M216 796L218 792L220 796L218 794.316L216 796Z" fill="#01C5E3" fill-opacity="0.2"/> <path d="M264 796L266 792L268 796L266 794.316L264 796Z" fill="#01C5E3" fill-opacity="0.2"/> <path d="M312 796L314 792L316 796L314 794.316L312 796Z" fill="#01C5E3" fill-opacity="0.2"/> <path d="M356 796L358 792L360 796L358 794.316L356 796Z" fill="#01C5E3" fill-opacity="0.2"/> <path d="M0 820L2 816L4 820L2 818.316L0 820Z" fill="#01C5E3" fill-opacity="0.2"/> <path d="M48 820L50 816L52 820L50 818.316L48 820Z" fill="#01C5E3" fill-opacity="0.2"/> <path d="M96 820L98 816L100 820L98 818.316L96 820Z" fill="#01C5E3" fill-opacity="0.2"/> <path d="M144 820L146 816L148 820L146 818.316L144 820Z" fill="#01C5E3" fill-opacity="0.2"/> <path d="M192 820L194 816L196 820L194 818.316L192 820Z" fill="#01C5E3" fill-opacity="0.2"/> <path d="M240 820L242 816L244 820L242 818.316L240 820Z" fill="#01C5E3" fill-opacity="0.2"/> <path d="M288 820L290 816L292 820L290 818.316L288 820Z" fill="#01C5E3" fill-opacity="0.2"/> <path d="M332 820L334 816L336 820L334 818.316L332 820Z" fill="#01C5E3" fill-opacity="0.2"/> <path d="M24 844L26 840L28 844L26 842.316L24 844Z" fill="#01C5E3" fill-opacity="0.2"/> <path d="M72 844L74 840L76 844L74 842.316L72 844Z" fill="#01C5E3" fill-opacity="0.2"/> <path d="M120 844L122 840L124 844L122 842.316L120 844Z" fill="#01C5E3" fill-opacity="0.2"/> <path d="M168 844L170 840L172 844L170 842.316L168 844Z" fill="#01C5E3" fill-opacity="0.2"/> <path d="M216 844L218 840L220 844L218 842.316L216 844Z" fill="#01C5E3" fill-opacity="0.2"/> <path d="M264 844L266 840L268 844L266 842.316L264 844Z" fill="#01C5E3" fill-opacity="0.2"/> <path d="M312 844L314 840L316 844L314 842.316L312 844Z" fill="#01C5E3" fill-opacity="0.2"/> <path d="M356 844L358 840L360 844L358 842.316L356 844Z" fill="#01C5E3" fill-opacity="0.2"/> <path d="M0 1444L2 1440L4 1444L2 1442.32L0 1444Z" fill="#01C5E3" fill-opacity="0.2"/> <path d="M48 1444L50 1440L52 1444L50 1442.32L48 1444Z" fill="#01C5E3" fill-opacity="0.2"/> <path d="M96 1444L98 1440L100 1444L98 1442.32L96 1444Z" fill="#01C5E3" fill-opacity="0.2"/> <path d="M144 1444L146 1440L148 1444L146 1442.32L144 1444Z" fill="#01C5E3" fill-opacity="0.2"/> <path d="M192 1444L194 1440L196 1444L194 1442.32L192 1444Z" fill="#01C5E3" fill-opacity="0.2"/> <path d="M240 1444L242 1440L244 1444L242 1442.32L240 1444Z" fill="#01C5E3" fill-opacity="0.2"/> <path d="M288 1444L290 1440L292 1444L290 1442.32L288 1444Z" fill="#01C5E3" fill-opacity="0.2"/> <path d="M332 1444L334 1440L336 1444L334 1442.32L332 1444Z" fill="#01C5E3" fill-opacity="0.2"/> <path d="M24 1468L26 1464L28 1468L26 1466.32L24 1468Z" fill="#01C5E3" fill-opacity="0.2"/> <path d="M72 1468L74 1464L76 1468L74 1466.32L72 1468Z" fill="#01C5E3" fill-opacity="0.2"/> <path d="M120 1468L122 1464L124 1468L122 1466.32L120 1468Z" fill="#01C5E3" fill-opacity="0.2"/> <path d="M168 1468L170 1464L172 1468L170 1466.32L168 1468Z" fill="#01C5E3" fill-opacity="0.2"/> <path d="M216 1468L218 1464L220 1468L218 1466.32L216 1468Z" fill="#01C5E3" fill-opacity="0.2"/> <path d="M264 1468L266 1464L268 1468L266 1466.32L264 1468Z" fill="#01C5E3" fill-opacity="0.2"/> <path d="M312 1468L314 1464L316 1468L314 1466.32L312 1468Z" fill="#01C5E3" fill-opacity="0.2"/> <path d="M356 1468L358 1464L360 1468L358 1466.32L356 1468Z" fill="#01C5E3" fill-opacity="0.2"/> <path d="M0 1492L2 1488L4 1492L2 1490.32L0 1492Z" fill="#01C5E3" fill-opacity="0.2"/> <path d="M48 1492L50 1488L52 1492L50 1490.32L48 1492Z" fill="#01C5E3" fill-opacity="0.2"/> <path d="M96 1492L98 1488L100 1492L98 1490.32L96 1492Z" fill="#01C5E3" fill-opacity="0.2"/> <path d="M144 1492L146 1488L148 1492L146 1490.32L144 1492Z" fill="#01C5E3" fill-opacity="0.2"/> <path d="M192 1492L194 1488L196 1492L194 1490.32L192 1492Z" fill="#01C5E3" fill-opacity="0.2"/> <path d="M240 1492L242 1488L244 1492L242 1490.32L240 1492Z" fill="#01C5E3" fill-opacity="0.2"/> <path d="M288 1492L290 1488L292 1492L290 1490.32L288 1492Z" fill="#01C5E3" fill-opacity="0.2"/> <path d="M332 1492L334 1488L336 1492L334 1490.32L332 1492Z" fill="#01C5E3" fill-opacity="0.2"/> <path d="M24 1516L26 1512L28 1516L26 1514.32L24 1516Z" fill="#01C5E3" fill-opacity="0.2"/> <path d="M72 1516L74 1512L76 1516L74 1514.32L72 1516Z" fill="#01C5E3" fill-opacity="0.2"/> <path d="M120 1516L122 1512L124 1516L122 1514.32L120 1516Z" fill="#01C5E3" fill-opacity="0.2"/> <path d="M168 1516L170 1512L172 1516L170 1514.32L168 1516Z" fill="#01C5E3" fill-opacity="0.2"/> <path d="M216 1516L218 1512L220 1516L218 1514.32L216 1516Z" fill="#01C5E3" fill-opacity="0.2"/> <path d="M264 1516L266 1512L268 1516L266 1514.32L264 1516Z" fill="#01C5E3" fill-opacity="0.2"/> <path d="M312 1516L314 1512L316 1516L314 1514.32L312 1516Z" fill="#01C5E3" fill-opacity="0.2"/> <path d="M356 1516L358 1512L360 1516L358 1514.32L356 1516Z" fill="#01C5E3" fill-opacity="0.2"/> <path d="M0 1540L2 1536L4 1540L2 1538.32L0 1540Z" fill="#01C5E3" fill-opacity="0.2"/> <path d="M48 1540L50 1536L52 1540L50 1538.32L48 1540Z" fill="#01C5E3" fill-opacity="0.2"/> <path d="M96 1540L98 1536L100 1540L98 1538.32L96 1540Z" fill="#01C5E3" fill-opacity="0.2"/> <path d="M144 1540L146 1536L148 1540L146 1538.32L144 1540Z" fill="#01C5E3" fill-opacity="0.2"/> <path d="M192 1540L194 1536L196 1540L194 1538.32L192 1540Z" fill="#01C5E3" fill-opacity="0.2"/> <path d="M240 1540L242 1536L244 1540L242 1538.32L240 1540Z" fill="#01C5E3" fill-opacity="0.2"/> <path d="M288 1540L290 1536L292 1540L290 1538.32L288 1540Z" fill="#01C5E3" fill-opacity="0.2"/> <path d="M332 1540L334 1536L336 1540L334 1538.32L332 1540Z" fill="#01C5E3" fill-opacity="0.2"/> <path d="M24 1564L26 1560L28 1564L26 1562.32L24 1564Z" fill="#01C5E3" fill-opacity="0.2"/> <path d="M72 1564L74 1560L76 1564L74 1562.32L72 1564Z" fill="#01C5E3" fill-opacity="0.2"/> <path d="M120 1564L122 1560L124 1564L122 1562.32L120 1564Z" fill="#01C5E3" fill-opacity="0.2"/> <path d="M168 1564L170 1560L172 1564L170 1562.32L168 1564Z" fill="#01C5E3" fill-opacity="0.2"/> <path d="M216 1564L218 1560L220 1564L218 1562.32L216 1564Z" fill="#01C5E3" fill-opacity="0.2"/> <path d="M264 1564L266 1560L268 1564L266 1562.32L264 1564Z" fill="#01C5E3" fill-opacity="0.2"/> <path d="M312 1564L314 1560L316 1564L314 1562.32L312 1564Z" fill="#01C5E3" fill-opacity="0.2"/> <path d="M356 1564L358 1560L360 1564L358 1562.32L356 1564Z" fill="#01C5E3" fill-opacity="0.2"/> <path d="M0 1588L2 1584L4 1588L2 1586.32L0 1588Z" fill="#01C5E3" fill-opacity="0.2"/> <path d="M48 1588L50 1584L52 1588L50 1586.32L48 1588Z" fill="#01C5E3" fill-opacity="0.2"/> <path d="M96 1588L98 1584L100 1588L98 1586.32L96 1588Z" fill="#01C5E3" fill-opacity="0.2"/> <path d="M144 1588L146 1584L148 1588L146 1586.32L144 1588Z" fill="#01C5E3" fill-opacity="0.2"/> <path d="M192 1588L194 1584L196 1588L194 1586.32L192 1588Z" fill="#01C5E3" fill-opacity="0.2"/> <path d="M240 1588L242 1584L244 1588L242 1586.32L240 1588Z" fill="#01C5E3" fill-opacity="0.2"/> <path d="M288 1588L290 1584L292 1588L290 1586.32L288 1588Z" fill="#01C5E3" fill-opacity="0.2"/> <path d="M332 1588L334 1584L336 1588L334 1586.32L332 1588Z" fill="#01C5E3" fill-opacity="0.2"/> <path d="M24 1612L26 1608L28 1612L26 1610.32L24 1612Z" fill="#01C5E3" fill-opacity="0.2"/> <path d="M72 1612L74 1608L76 1612L74 1610.32L72 1612Z" fill="#01C5E3" fill-opacity="0.2"/> <path d="M120 1612L122 1608L124 1612L122 1610.32L120 1612Z" fill="#01C5E3" fill-opacity="0.2"/> <path d="M168 1612L170 1608L172 1612L170 1610.32L168 1612Z" fill="#01C5E3" fill-opacity="0.2"/> <path d="M216 1612L218 1608L220 1612L218 1610.32L216 1612Z" fill="#01C5E3" fill-opacity="0.2"/> <path d="M264 1612L266 1608L268 1612L266 1610.32L264 1612Z" fill="#01C5E3" fill-opacity="0.2"/> <path d="M312 1612L314 1608L316 1612L314 1610.32L312 1612Z" fill="#01C5E3" fill-opacity="0.2"/> <path d="M356 1612L358 1608L360 1612L358 1610.32L356 1612Z" fill="#01C5E3" fill-opacity="0.2"/> <path d="M0 1636L2 1632L4 1636L2 1634.32L0 1636Z" fill="#01C5E3" fill-opacity="0.2"/> <path d="M48 1636L50 1632L52 1636L50 1634.32L48 1636Z" fill="#01C5E3" fill-opacity="0.2"/> <path d="M96 1636L98 1632L100 1636L98 1634.32L96 1636Z" fill="#01C5E3" fill-opacity="0.2"/> <path d="M144 1636L146 1632L148 1636L146 1634.32L144 1636Z" fill="#01C5E3" fill-opacity="0.2"/> <path d="M192 1636L194 1632L196 1636L194 1634.32L192 1636Z" fill="#01C5E3" fill-opacity="0.2"/> <path d="M240 1636L242 1632L244 1636L242 1634.32L240 1636Z" fill="#01C5E3" fill-opacity="0.2"/> <path d="M288 1636L290 1632L292 1636L290 1634.32L288 1636Z" fill="#01C5E3" fill-opacity="0.2"/> <path d="M332 1636L334 1632L336 1636L334 1634.32L332 1636Z" fill="#01C5E3" fill-opacity="0.2"/> <path d="M24 1660L26 1656L28 1660L26 1658.32L24 1660Z" fill="#01C5E3" fill-opacity="0.2"/> <path d="M72 1660L74 1656L76 1660L74 1658.32L72 1660Z" fill="#01C5E3" fill-opacity="0.2"/> <path d="M120 1660L122 1656L124 1660L122 1658.32L120 1660Z" fill="#01C5E3" fill-opacity="0.2"/> <path d="M168 1660L170 1656L172 1660L170 1658.32L168 1660Z" fill="#01C5E3" fill-opacity="0.2"/> <path d="M216 1660L218 1656L220 1660L218 1658.32L216 1660Z" fill="#01C5E3" fill-opacity="0.2"/> <path d="M264 1660L266 1656L268 1660L266 1658.32L264 1660Z" fill="#01C5E3" fill-opacity="0.2"/> <path d="M312 1660L314 1656L316 1660L314 1658.32L312 1660Z" fill="#01C5E3" fill-opacity="0.2"/> <path d="M356 1660L358 1656L360 1660L358 1658.32L356 1660Z" fill="#01C5E3" fill-opacity="0.2"/> <path d="M0 1684L2 1680L4 1684L2 1682.32L0 1684Z" fill="#01C5E3" fill-opacity="0.2"/> <path d="M48 1684L50 1680L52 1684L50 1682.32L48 1684Z" fill="#01C5E3" fill-opacity="0.2"/> <path d="M96 1684L98 1680L100 1684L98 1682.32L96 1684Z" fill="#01C5E3" fill-opacity="0.2"/> <path d="M144 1684L146 1680L148 1684L146 1682.32L144 1684Z" fill="#01C5E3" fill-opacity="0.2"/> <path d="M192 1684L194 1680L196 1684L194 1682.32L192 1684Z" fill="#01C5E3" fill-opacity="0.2"/> <path d="M240 1684L242 1680L244 1684L242 1682.32L240 1684Z" fill="#01C5E3" fill-opacity="0.2"/> <path d="M288 1684L290 1680L292 1684L290 1682.32L288 1684Z" fill="#01C5E3" fill-opacity="0.2"/> <path d="M332 1684L334 1680L336 1684L334 1682.32L332 1684Z" fill="#01C5E3" fill-opacity="0.2"/> <path d="M24 1708L26 1704L28 1708L26 1706.32L24 1708Z" fill="#01C5E3" fill-opacity="0.2"/> <path d="M72 1708L74 1704L76 1708L74 1706.32L72 1708Z" fill="#01C5E3" fill-opacity="0.2"/> <path d="M120 1708L122 1704L124 1708L122 1706.32L120 1708Z" fill="#01C5E3" fill-opacity="0.2"/> <path d="M168 1708L170 1704L172 1708L170 1706.32L168 1708Z" fill="#01C5E3" fill-opacity="0.2"/> <path d="M216 1708L218 1704L220 1708L218 1706.32L216 1708Z" fill="#01C5E3" fill-opacity="0.2"/> <path d="M264 1708L266 1704L268 1708L266 1706.32L264 1708Z" fill="#01C5E3" fill-opacity="0.2"/> <path d="M312 1708L314 1704L316 1708L314 1706.32L312 1708Z" fill="#01C5E3" fill-opacity="0.2"/> <path d="M356 1708L358 1704L360 1708L358 1706.32L356 1708Z" fill="#01C5E3" fill-opacity="0.2"/> <path d="M0 1156L2 1152L4 1156L2 1154.32L0 1156Z" fill="#01C5E3" fill-opacity="0.2"/> <path d="M48 1156L50 1152L52 1156L50 1154.32L48 1156Z" fill="#01C5E3" fill-opacity="0.2"/> <path d="M96 1156L98 1152L100 1156L98 1154.32L96 1156Z" fill="#01C5E3" fill-opacity="0.2"/> <path d="M144 1156L146 1152L148 1156L146 1154.32L144 1156Z" fill="#01C5E3" fill-opacity="0.2"/> <path d="M192 1156L194 1152L196 1156L194 1154.32L192 1156Z" fill="#01C5E3" fill-opacity="0.2"/> <path d="M240 1156L242 1152L244 1156L242 1154.32L240 1156Z" fill="#01C5E3" fill-opacity="0.2"/> <path d="M288 1156L290 1152L292 1156L290 1154.32L288 1156Z" fill="#01C5E3" fill-opacity="0.2"/> <path d="M332 1156L334 1152L336 1156L334 1154.32L332 1156Z" fill="#01C5E3" fill-opacity="0.2"/> <path d="M24 1180L26 1176L28 1180L26 1178.32L24 1180Z" fill="#01C5E3" fill-opacity="0.2"/> <path d="M72 1180L74 1176L76 1180L74 1178.32L72 1180Z" fill="#01C5E3" fill-opacity="0.2"/> <path d="M120 1180L122 1176L124 1180L122 1178.32L120 1180Z" fill="#01C5E3" fill-opacity="0.2"/> <path d="M168 1180L170 1176L172 1180L170 1178.32L168 1180Z" fill="#01C5E3" fill-opacity="0.2"/> <path d="M216 1180L218 1176L220 1180L218 1178.32L216 1180Z" fill="#01C5E3" fill-opacity="0.2"/> <path d="M264 1180L266 1176L268 1180L266 1178.32L264 1180Z" fill="#01C5E3" fill-opacity="0.2"/> <path d="M312 1180L314 1176L316 1180L314 1178.32L312 1180Z" fill="#01C5E3" fill-opacity="0.2"/> <path d="M356 1180L358 1176L360 1180L358 1178.32L356 1180Z" fill="#01C5E3" fill-opacity="0.2"/> <path d="M0 1204L2 1200L4 1204L2 1202.32L0 1204Z" fill="#01C5E3" fill-opacity="0.2"/> <path d="M48 1204L50 1200L52 1204L50 1202.32L48 1204Z" fill="#01C5E3" fill-opacity="0.2"/> <path d="M96 1204L98 1200L100 1204L98 1202.32L96 1204Z" fill="#01C5E3" fill-opacity="0.2"/> <path d="M144 1204L146 1200L148 1204L146 1202.32L144 1204Z" fill="#01C5E3" fill-opacity="0.2"/> <path d="M192 1204L194 1200L196 1204L194 1202.32L192 1204Z" fill="#01C5E3" fill-opacity="0.2"/> <path d="M240 1204L242 1200L244 1204L242 1202.32L240 1204Z" fill="#01C5E3" fill-opacity="0.2"/> <path d="M288 1204L290 1200L292 1204L290 1202.32L288 1204Z" fill="#01C5E3" fill-opacity="0.2"/> <path d="M332 1204L334 1200L336 1204L334 1202.32L332 1204Z" fill="#01C5E3" fill-opacity="0.2"/> <path d="M24 1228L26 1224L28 1228L26 1226.32L24 1228Z" fill="#01C5E3" fill-opacity="0.2"/> <path d="M72 1228L74 1224L76 1228L74 1226.32L72 1228Z" fill="#01C5E3" fill-opacity="0.2"/> <path d="M120 1228L122 1224L124 1228L122 1226.32L120 1228Z" fill="#01C5E3" fill-opacity="0.2"/> <path d="M168 1228L170 1224L172 1228L170 1226.32L168 1228Z" fill="#01C5E3" fill-opacity="0.2"/> <path d="M216 1228L218 1224L220 1228L218 1226.32L216 1228Z" fill="#01C5E3" fill-opacity="0.2"/> <path d="M264 1228L266 1224L268 1228L266 1226.32L264 1228Z" fill="#01C5E3" fill-opacity="0.2"/> <path d="M312 1228L314 1224L316 1228L314 1226.32L312 1228Z" fill="#01C5E3" fill-opacity="0.2"/> <path d="M356 1228L358 1224L360 1228L358 1226.32L356 1228Z" fill="#01C5E3" fill-opacity="0.2"/> <path d="M0 1252L2 1248L4 1252L2 1250.32L0 1252Z" fill="#01C5E3" fill-opacity="0.2"/> <path d="M48 1252L50 1248L52 1252L50 1250.32L48 1252Z" fill="#01C5E3" fill-opacity="0.2"/> <path d="M96 1252L98 1248L100 1252L98 1250.32L96 1252Z" fill="#01C5E3" fill-opacity="0.2"/> <path d="M144 1252L146 1248L148 1252L146 1250.32L144 1252Z" fill="#01C5E3" fill-opacity="0.2"/> <path d="M192 1252L194 1248L196 1252L194 1250.32L192 1252Z" fill="#01C5E3" fill-opacity="0.2"/> <path d="M240 1252L242 1248L244 1252L242 1250.32L240 1252Z" fill="#01C5E3" fill-opacity="0.2"/> <path d="M288 1252L290 1248L292 1252L290 1250.32L288 1252Z" fill="#01C5E3" fill-opacity="0.2"/> <path d="M332 1252L334 1248L336 1252L334 1250.32L332 1252Z" fill="#01C5E3" fill-opacity="0.2"/> <path d="M24 1276L26 1272L28 1276L26 1274.32L24 1276Z" fill="#01C5E3" fill-opacity="0.2"/> <path d="M72 1276L74 1272L76 1276L74 1274.32L72 1276Z" fill="#01C5E3" fill-opacity="0.2"/> <path d="M120 1276L122 1272L124 1276L122 1274.32L120 1276Z" fill="#01C5E3" fill-opacity="0.2"/> <path d="M168 1276L170 1272L172 1276L170 1274.32L168 1276Z" fill="#01C5E3" fill-opacity="0.2"/> <path d="M216 1276L218 1272L220 1276L218 1274.32L216 1276Z" fill="#01C5E3" fill-opacity="0.2"/> <path d="M264 1276L266 1272L268 1276L266 1274.32L264 1276Z" fill="#01C5E3" fill-opacity="0.2"/> <path d="M312 1276L314 1272L316 1276L314 1274.32L312 1276Z" fill="#01C5E3" fill-opacity="0.2"/> <path d="M356 1276L358 1272L360 1276L358 1274.32L356 1276Z" fill="#01C5E3" fill-opacity="0.2"/> <path d="M0 1300L2 1296L4 1300L2 1298.32L0 1300Z" fill="#01C5E3" fill-opacity="0.2"/> <path d="M48 1300L50 1296L52 1300L50 1298.32L48 1300Z" fill="#01C5E3" fill-opacity="0.2"/> <path d="M96 1300L98 1296L100 1300L98 1298.32L96 1300Z" fill="#01C5E3" fill-opacity="0.2"/> <path d="M144 1300L146 1296L148 1300L146 1298.32L144 1300Z" fill="#01C5E3" fill-opacity="0.2"/> <path d="M192 1300L194 1296L196 1300L194 1298.32L192 1300Z" fill="#01C5E3" fill-opacity="0.2"/> <path d="M240 1300L242 1296L244 1300L242 1298.32L240 1300Z" fill="#01C5E3" fill-opacity="0.2"/> <path d="M288 1300L290 1296L292 1300L290 1298.32L288 1300Z" fill="#01C5E3" fill-opacity="0.2"/> <path d="M332 1300L334 1296L336 1300L334 1298.32L332 1300Z" fill="#01C5E3" fill-opacity="0.2"/> <path d="M24 1324L26 1320L28 1324L26 1322.32L24 1324Z" fill="#01C5E3" fill-opacity="0.2"/> <path d="M72 1324L74 1320L76 1324L74 1322.32L72 1324Z" fill="#01C5E3" fill-opacity="0.2"/> <path d="M120 1324L122 1320L124 1324L122 1322.32L120 1324Z" fill="#01C5E3" fill-opacity="0.2"/> <path d="M168 1324L170 1320L172 1324L170 1322.32L168 1324Z" fill="#01C5E3" fill-opacity="0.2"/> <path d="M216 1324L218 1320L220 1324L218 1322.32L216 1324Z" fill="#01C5E3" fill-opacity="0.2"/> <path d="M264 1324L266 1320L268 1324L266 1322.32L264 1324Z" fill="#01C5E3" fill-opacity="0.2"/> <path d="M312 1324L314 1320L316 1324L314 1322.32L312 1324Z" fill="#01C5E3" fill-opacity="0.2"/> <path d="M356 1324L358 1320L360 1324L358 1322.32L356 1324Z" fill="#01C5E3" fill-opacity="0.2"/> <path d="M0 1348L2 1344L4 1348L2 1346.32L0 1348Z" fill="#01C5E3" fill-opacity="0.2"/> <path d="M48 1348L50 1344L52 1348L50 1346.32L48 1348Z" fill="#01C5E3" fill-opacity="0.2"/> <path d="M96 1348L98 1344L100 1348L98 1346.32L96 1348Z" fill="#01C5E3" fill-opacity="0.2"/> <path d="M144 1348L146 1344L148 1348L146 1346.32L144 1348Z" fill="#01C5E3" fill-opacity="0.2"/> <path d="M192 1348L194 1344L196 1348L194 1346.32L192 1348Z" fill="#01C5E3" fill-opacity="0.2"/> <path d="M240 1348L242 1344L244 1348L242 1346.32L240 1348Z" fill="#01C5E3" fill-opacity="0.2"/> <path d="M288 1348L290 1344L292 1348L290 1346.32L288 1348Z" fill="#01C5E3" fill-opacity="0.2"/> <path d="M332 1348L334 1344L336 1348L334 1346.32L332 1348Z" fill="#01C5E3" fill-opacity="0.2"/> <path d="M24 1372L26 1368L28 1372L26 1370.32L24 1372Z" fill="#01C5E3" fill-opacity="0.2"/> <path d="M72 1372L74 1368L76 1372L74 1370.32L72 1372Z" fill="#01C5E3" fill-opacity="0.2"/> <path d="M120 1372L122 1368L124 1372L122 1370.32L120 1372Z" fill="#01C5E3" fill-opacity="0.2"/> <path d="M168 1372L170 1368L172 1372L170 1370.32L168 1372Z" fill="#01C5E3" fill-opacity="0.2"/> <path d="M216 1372L218 1368L220 1372L218 1370.32L216 1372Z" fill="#01C5E3" fill-opacity="0.2"/> <path d="M264 1372L266 1368L268 1372L266 1370.32L264 1372Z" fill="#01C5E3" fill-opacity="0.2"/> <path d="M312 1372L314 1368L316 1372L314 1370.32L312 1372Z" fill="#01C5E3" fill-opacity="0.2"/> <path d="M356 1372L358 1368L360 1372L358 1370.32L356 1372Z" fill="#01C5E3" fill-opacity="0.2"/> <path d="M0 1396L2 1392L4 1396L2 1394.32L0 1396Z" fill="#01C5E3" fill-opacity="0.2"/> <path d="M48 1396L50 1392L52 1396L50 1394.32L48 1396Z" fill="#01C5E3" fill-opacity="0.2"/> <path d="M96 1396L98 1392L100 1396L98 1394.32L96 1396Z" fill="#01C5E3" fill-opacity="0.2"/> <path d="M144 1396L146 1392L148 1396L146 1394.32L144 1396Z" fill="#01C5E3" fill-opacity="0.2"/> <path d="M192 1396L194 1392L196 1396L194 1394.32L192 1396Z" fill="#01C5E3" fill-opacity="0.2"/> <path d="M240 1396L242 1392L244 1396L242 1394.32L240 1396Z" fill="#01C5E3" fill-opacity="0.2"/> <path d="M288 1396L290 1392L292 1396L290 1394.32L288 1396Z" fill="#01C5E3" fill-opacity="0.2"/> <path d="M332 1396L334 1392L336 1396L334 1394.32L332 1396Z" fill="#01C5E3" fill-opacity="0.2"/> <path d="M24 1420L26 1416L28 1420L26 1418.32L24 1420Z" fill="#01C5E3" fill-opacity="0.2"/> <path d="M72 1420L74 1416L76 1420L74 1418.32L72 1420Z" fill="#01C5E3" fill-opacity="0.2"/> <path d="M120 1420L122 1416L124 1420L122 1418.32L120 1420Z" fill="#01C5E3" fill-opacity="0.2"/> <path d="M168 1420L170 1416L172 1420L170 1418.32L168 1420Z" fill="#01C5E3" fill-opacity="0.2"/> <path d="M216 1420L218 1416L220 1420L218 1418.32L216 1420Z" fill="#01C5E3" fill-opacity="0.2"/> <path d="M264 1420L266 1416L268 1420L266 1418.32L264 1420Z" fill="#01C5E3" fill-opacity="0.2"/> <path d="M312 1420L314 1416L316 1420L314 1418.32L312 1420Z" fill="#01C5E3" fill-opacity="0.2"/> <path d="M356 1420L358 1416L360 1420L358 1418.32L356 1420Z" fill="#01C5E3" fill-opacity="0.2"/> </svg>